# xmcd CD database file
#
# Track frame offsets:
#	150
#	23942
#	46142
#	56637
#	73622
#	97417
#	119602
#	130102
#	157712
#
# Disc length: 4440 seconds
#
# Revision: 0
# Processed by: cddbd v1.5.1PL0 Copyright (c) Steve Scherf et al.
# Submitted via: CDex 1.51
#
DISCID=79115609
DTITLE=Rather Unique - Winter Bell
DYEAR=2004
DGENRE=JPop
TTITLE0=Winter Bell
TTITLE1=R.u Party
TTITLE2=Bring The Beat Back Pt.2
TTITLE3=Arather Train (Dj Shibuchin S+t Rhythm Remix)
TTITLE4=Winter Bell [Instrumental]
TTITLE5=R.u Party [Instrumental]
TTITLE6=Bring The Beat Back Pt.2 [Instrumental]
TTITLE7=Arather Train (Dj Shibuchin S+t Rhythm Remix) [Instrumental]
TTITLE8=no.09
EXTD=YEAR: 2004
EXTT0=
EXTT1=
EXTT2=
EXTT3=
EXTT4=
EXTT5=
EXTT6=
EXTT7=
EXTT8=
PLAYORDER=
